<svg xmlns="http://www.w3.org/2000/svg" width="20.498" height="21.637" viewBox="0 0 20.498 21.637">
  <path id="Icon_metro-location-city" data-name="Icon metro-location-city" d="M20.092,15.391V8.558L16.676,5.141,13.26,8.558v2.278H6.427V26.779h20.5V15.391H20.092Zm-9.11,9.11H8.7V22.223h2.278Zm0-4.555H8.7V17.668h2.278Zm0-4.555H8.7V13.113h2.278Zm6.833,9.11H15.537V22.223h2.278Zm0-4.555H15.537V17.668h2.278Zm0-4.555H15.537V13.113h2.278Zm0-4.555H15.537V8.558h2.278ZM24.648,24.5H22.37V22.223h2.278Zm0-4.555H22.37V17.668h2.278Z" transform="translate(-6.427 -5.141)" fill="#cb0000"/>
</svg>
