<svg xmlns="http://www.w3.org/2000/svg" xmlns:xlink="http://www.w3.org/1999/xlink" width="31.525" height="28.373" viewBox="0 0 31.525 28.373"><defs><style>.a,.b{fill:none;}.a{clip-rule:evenodd;}.c{clip-path:url(#a);}.d{clip-path:url(#b);}.e{fill:#9b9a9b;}</style><clipPath id="a"><path class="a" d="M28.373,3.437,4.42-1.353A1.577,1.577,0,0,1,3.153-2.9V-4.728A1.576,1.576,0,0,1,4.42-6.274l23.953-4.79ZM12.61,4.638a1.576,1.576,0,0,1-1.895,1.543L7.563,5.534A1.578,1.578,0,0,1,6.305,3.989V2.176L12.61,3.437ZM28.373-16.424v2.207L2.535-9.05A3.153,3.153,0,0,0,0-5.957V-1.67A3.153,3.153,0,0,0,2.535,1.423l.618.123V5.209A3.153,3.153,0,0,0,5.67,8.3l6.305,1.3a3.153,3.153,0,0,0,3.788-3.088V4.068L28.373,6.59V8.8a1.576,1.576,0,1,0,3.153,0v-25.22A1.577,1.577,0,0,0,29.949-18a1.577,1.577,0,0,0-1.576,1.576Z" transform="translate(0 18)"/></clipPath><clipPath id="b"><path class="b" d="M-20,1336.678H632.576V-744H-20Z" transform="translate(20 744)"/></clipPath></defs><g transform="translate(0 0)"><g class="c" transform="translate(0 0)"><g class="d" transform="translate(-31.525 -1144.373)"><path class="e" d="M-5,21.136H42.288V-23H-5Z" transform="translate(28.644 1159.491)"/></g></g></g></svg>